<?xml version="1.0" encoding="UTF-8"?>
<svg id="Layer_2" data-name="Layer 2" xmlns="http://www.w3.org/2000/svg" viewBox="0 0 236.19 190.5">
  <defs>
    <style>
      .cls-1 {
        fill: #000;
        stroke-width: 0px;
      }
    </style>
  </defs>
  <g id="Layer_1-2" data-name="Layer 1">
    <path class="cls-1" d="M154.44,190.5H.46L77.45,57.15l76.99,133.35ZM41.7,166.69h71.49l-35.75-61.91-35.75,61.91Z"/>
    <path class="cls-1" d="M219.98,190.5H0L109.99,0l110,190.5ZM41.24,166.69h137.49L109.99,47.62l-68.74,119.06Z"/>
    <g>
      <circle class="cls-1" cx="198.88" cy="38.1" r="13.49"/>
      <path class="cls-1" d="M198.89,63.5c-14.01,0-25.4-11.39-25.4-25.4s11.39-25.4,25.4-25.4,25.4,11.39,25.4,25.4-11.39,25.4-25.4,25.4ZM198.89,36.51c-.88,0-1.59.71-1.59,1.59s.71,1.59,1.59,1.59,1.59-.71,1.59-1.59-.71-1.59-1.59-1.59Z"/>
    </g>
    <path class="cls-1" d="M236.19,190.41h-37.31v-23.81h13.49v-50.95c-.01-.38-.2-4.79-2.25-8.75-1.55-3.01-4.1-6.08-11.25-6.08s-9.7,3.08-11.25,6.08c-2.05,3.97-2.23,8.38-2.25,8.75v17.71h-23.81v-17.79c0-15.5,9.94-38.56,37.31-38.56s37.31,23.06,37.31,38.56v74.85Z"/>
  </g>
</svg>